<?xml version="1.0" encoding="UTF-8"?>
<svg id="a" data-name="Layer 1" xmlns="http://www.w3.org/2000/svg" width="459.115" height="282.293" viewBox="0 0 459.115 282.293">
  <path d="M343.541,67.642l-7.003-19.743h-.333v19.743h-13.875V17.347h14.943c12.629,0,18.943,5.403,18.943,16.21,0,3.202-.633,5.947-1.9,8.238-1.268,2.291-3.214,3.968-5.838,5.036l10.14,20.811h-15.076ZM341.207,29.821c-.889-.979-2.201-1.469-3.934-1.469h-1.068v12.275h1.068c1.733,0,3.045-.556,3.934-1.667.889-1.112,1.334-2.646,1.334-4.603,0-2.045-.445-3.557-1.334-4.536ZM291.746,17.347h25.547v12.073h-11.674v6.737h10.473v12.075h-10.473v7.337h11.674v12.073h-25.547V17.347ZM272.12,36.957l-5.268,30.685h-11.275l-5.336-30.685-2.001,30.685h-13.607l5.07-50.295h16.676l5.203,27.415,5.336-27.415h16.476l4.804,50.295h-13.675l-2.402-30.685ZM216.902,36.957l-5.27,30.685h-11.273l-5.338-30.685-2.001,30.685h-13.607l5.07-50.295h16.676l5.203,27.415,5.336-27.415h16.478l4.802,50.295h-13.675l-2.4-30.685ZM159.301,68.509c-5.647,0-9.939-1.544-12.873-4.635-2.936-3.091-4.403-7.549-4.403-13.375V17.347h13.873v33.285c0,1.469.278,2.658.834,3.569.556.913,1.457,1.368,2.702,1.368s2.102-.445,2.569-1.334c.466-.889.701-2.112.701-3.668V17.347h13.875v33.152c0,5.826-1.469,10.284-4.403,13.375-2.936,3.091-7.227,4.635-12.875,4.635ZM130.405,37.491c2.801,1.957,4.836,4.014,6.104,6.171,1.266,2.158,1.9,4.792,1.9,7.904,0,3.158-.689,6.027-2.066,8.605-1.38,2.579-3.293,4.613-5.737,6.104-2.448,1.489-5.227,2.233-8.339,2.233-3.603,0-7.003-.689-10.205-2.066v-16.011c.621.981,1.443,1.914,2.467,2.803,1.022.889,2.112,1.59,3.269,2.1,1.155.512,2.267.768,3.335.768s1.9-.234,2.501-.701c.599-.466.901-1.167.901-2.102,0-.667-.167-1.276-.5-1.834-.333-.556-.991-1.3-1.969-2.233-.979-.935-2.18-2.003-3.601-3.202-2.225-1.868-3.881-3.859-4.97-5.971s-1.634-4.413-1.634-6.904c0-3.023.655-5.804,1.967-8.339s3.146-4.558,5.502-6.07c2.358-1.511,5.026-2.267,8.006-2.267,1.6,0,3.257.232,4.971.701,1.711.466,3.301,1.078,4.768,1.834v15.543c-1.066-1.423-2.412-2.68-4.036-3.77-1.624-1.09-3.101-1.634-4.437-1.634-.8,0-1.501.256-2.1.766-.601.512-.901,1.213-.901,2.102,0,.844.377,1.679,1.135,2.501.754.824,1.977,1.812,3.668,2.968Z" fill="#fff" fill-rule="evenodd"/>
</svg>